<svg width="32" height="32" viewBox="0 0 32 32" fill="none" xmlns="http://www.w3.org/2000/svg">
<g id="Compass" clip-path="url(#clip0_4_112)">
<path id="Vector" d="M16 32.032C19.6369 32.0341 23.1508 30.7148 25.8876 28.3195C28.6244 25.9243 30.3977 22.6163 30.8776 19.0112C31.3574 15.406 30.5112 11.7493 28.4962 8.72159C26.4812 5.69385 23.4349 3.50131 19.924 2.552C20.0096 2.25411 20.0247 1.94042 19.9682 1.63567C19.9118 1.33093 19.7853 1.04348 19.5987 0.795999C19.4121 0.548522 19.1706 0.347793 18.8931 0.209652C18.6157 0.0715113 18.3099 -0.000260395 18 7.09875e-07H14C13.6901 -0.000260395 13.3843 0.0715113 13.1069 0.209652C12.8295 0.347793 12.5879 0.548522 12.4013 0.795999C12.2148 1.04348 12.0883 1.33093 12.0318 1.63567C11.9753 1.94042 11.9905 2.25411 12.076 2.552C8.56516 3.50131 5.51879 5.69385 3.50383 8.72159C1.48887 11.7493 0.642581 15.406 1.12245 19.0112C1.60232 22.6163 3.37566 25.9243 6.11246 28.3195C8.84926 30.7148 12.3631 32.0341 16 32.032ZM29 17.032C29 20.4798 27.6304 23.7864 25.1924 26.2244C22.7544 28.6624 19.4478 30.032 16 30.032C12.5522 30.032 9.2456 28.6624 6.80763 26.2244C4.36965 23.7864 3.00001 20.4798 3.00001 17.032C3.00001 13.5842 4.36965 10.2776 6.80763 7.83961C9.2456 5.40164 12.5522 4.032 16 4.032C19.4478 4.032 22.7544 5.40164 25.1924 7.83961C27.6304 10.2776 29 13.5842 29 17.032Z" fill="white"/>
<path id="Vector_2" d="M13.88 14.88L23.78 9.21997L18.12 19.12L8.22198 24.78L13.88 14.88Z" fill="white"/>
</g>
<defs>
<clipPath id="clip0_4_112">
<rect width="32" height="32" fill="white"/>
</clipPath>
</defs>
</svg>
