<svg width="32" height="32" viewBox="0 0 32 32" fill="none" xmlns="http://www.w3.org/2000/svg">
<g id="FileEarmarkMusic">
<path id="Vector" d="M22 13.28C22 12.976 21.9307 12.676 21.7973 12.4028C21.664 12.1295 21.4701 11.8903 21.2304 11.7033C20.9908 11.5163 20.7116 11.3863 20.4142 11.3234C20.1168 11.2604 19.8089 11.2661 19.514 11.34L17.514 11.84C17.0815 11.9483 16.6976 12.1981 16.4233 12.5496C16.149 12.901 16 13.3341 16 13.78V22.392C15.3661 22.1292 14.6861 21.9959 14 22C13 22 12.052 22.268 11.324 22.754C10.604 23.234 10 24.01 10 25C10 25.99 10.602 26.766 11.324 27.246C12.052 27.732 13.002 28 14 28C15 28 15.948 27.732 16.676 27.246C17.396 26.766 18 25.99 18 25V17.78L22 16.78V13.28Z" fill="white"/>
<path id="Vector_2" d="M28 28V9L19 0H8C6.93913 0 5.92172 0.421427 5.17157 1.17157C4.42143 1.92172 4 2.93913 4 4V28C4 29.0609 4.42143 30.0783 5.17157 30.8284C5.92172 31.5786 6.93913 32 8 32H24C25.0609 32 26.0783 31.5786 26.8284 30.8284C27.5786 30.0783 28 29.0609 28 28ZM19 6C19 6.79565 19.3161 7.55871 19.8787 8.12132C20.4413 8.68393 21.2044 9 22 9H26V28C26 28.5304 25.7893 29.0391 25.4142 29.4142C25.0391 29.7893 24.5304 30 24 30H8C7.46957 30 6.96086 29.7893 6.58579 29.4142C6.21071 29.0391 6 28.5304 6 28V4C6 3.46957 6.21071 2.96086 6.58579 2.58579C6.96086 2.21071 7.46957 2 8 2H19V6Z" fill="white"/>
</g>
</svg>
