<svg width="32" height="32" viewBox="0 0 32 32" fill="none" xmlns="http://www.w3.org/2000/svg">
<g id="HouseDoorFill">
<path id="Vector" d="M13 29.0001V21.9901C13 21.5001 13.5 21.0001 14 21.0001H18C18.5 21.0001 19 21.5001 19 22.0001V29.0001C19 29.2653 19.1054 29.5196 19.2929 29.7072C19.4804 29.8947 19.7348 30.0001 20 30.0001H28C28.2652 30.0001 28.5196 29.8947 28.7071 29.7072C28.8946 29.5196 29 29.2653 29 29.0001V15.0001C29.0002 14.8687 28.9746 14.7385 28.9245 14.617C28.8744 14.4955 28.8008 14.3851 28.708 14.2921L26 11.5861V5.00008C26 4.73486 25.8946 4.48051 25.7071 4.29297C25.5196 4.10544 25.2652 4.00008 25 4.00008H23C22.7348 4.00008 22.4804 4.10544 22.2929 4.29297C22.1054 4.48051 22 4.73486 22 5.00008V7.58608L16.708 2.29208C16.6151 2.19895 16.5048 2.12507 16.3833 2.07465C16.2618 2.02424 16.1315 1.99829 16 1.99829C15.8685 1.99829 15.7382 2.02424 15.6167 2.07465C15.4952 2.12507 15.3849 2.19895 15.292 2.29208L3.292 14.2921C3.1992 14.3851 3.12564 14.4955 3.07554 14.617C3.02543 14.7385 2.99977 14.8687 3 15.0001V29.0001C3 29.2653 3.10536 29.5196 3.29289 29.7072C3.48043 29.8947 3.73479 30.0001 4 30.0001H12C12.2652 30.0001 12.5196 29.8947 12.7071 29.7072C12.8946 29.5196 13 29.2653 13 29.0001Z" fill="white"/>
</g>
</svg>
