<svg width="48" height="48" viewBox="0 0 48 48" fill="none" xmlns="http://www.w3.org/2000/svg">
<g id="Tv">
<path id="Vector" d="M7.5 40.5C7.5 40.1022 7.65804 39.7206 7.93934 39.4393C8.22064 39.158 8.60218 39 9 39H39C39.3978 39 39.7794 39.158 40.0607 39.4393C40.342 39.7206 40.5 40.1022 40.5 40.5C40.5 40.8978 40.342 41.2794 40.0607 41.5607C39.7794 41.842 39.3978 42 39 42H9C8.60218 42 8.22064 41.842 7.93934 41.5607C7.65804 41.2794 7.5 40.8978 7.5 40.5ZM41.973 9L42.045 9.003C42.6055 9.04116 43.1535 9.18681 43.659 9.432C44.0231 9.60143 44.3357 9.86437 44.565 10.194C44.766 10.494 45 11.025 45 12V29.973L44.997 30.045C44.9585 30.6055 44.8129 31.1534 44.568 31.659C44.3984 32.023 44.1355 32.3356 43.806 32.565C43.506 32.766 42.975 33 42 33H6.027L5.955 32.997C5.39451 32.9585 4.84661 32.8129 4.341 32.568C3.97702 32.3984 3.66443 32.1355 3.435 31.806C3.234 31.506 3 30.975 3 30V12.027L3.003 11.955C3.04116 11.3945 3.18681 10.8465 3.432 10.341C3.60156 9.97702 3.86447 9.66443 4.194 9.435C4.494 9.234 5.025 9 6 9H41.973ZM42 6H6C0 6 0 12 0 12V30C0 36 6 36 6 36H42C48 36 48 30 48 30V12C48 6 42 6 42 6Z" fill="white"/>
</g>
</svg>
